# xmcd CD database file
#
# Track frame offsets:
#	150
#	27651
#	50918
#	66818
#	82954
#	105453
#	121757
#	140823
#	161014
#	180858
#	201378
#	222964
#	247477
#	263963
#	285112
#	300938
#
# Disc length: 4377 seconds
#
# Revision: 0
# Processed by: cddbd v1.5.1PL2 Copyright (c) Steve Scherf et al.
# Submitted via: CDex 1.60beta1-cs1
#
DISCID=e9111710
DTITLE=Vicki Delor - Clouds Passing Over
DYEAR=2005
DGENRE=New Age
TTITLE0=Tides Of Time
TTITLE1=Katia's Dream
TTITLE2=A Moment Of Hope
TTITLE3=My Love
TTITLE4=Haunting My Heart
TTITLE5=Sad Winds Of The Past
TTITLE6=Cimmerian Moon
TTITLE7=Clouds Passing Over
TTITLE8=Simone
TTITLE9=Until Tomorrow
TTITLE10=Carnival Clown
TTITLE11=Journey To The Light
TTITLE12=Forgotten Promises
TTITLE13=Echos
TTITLE14=Passion
TTITLE15=Sea Of Sadness
EXTD=YEAR: 2005
EXTT0=
EXTT1=
EXTT2=
EXTT3=
EXTT4=
EXTT5=
EXTT6=
EXTT7=
EXTT8=
EXTT9=
EXTT10=
EXTT11=
EXTT12=
EXTT13=
EXTT14=
EXTT15=
PLAYORDER=
